<svg width="32" height="32" viewBox="0 0 32 32" fill="none" xmlns="http://www.w3.org/2000/svg">
<rect x="0.5" y="0.5" width="31" height="31" rx="7.5" fill="white" stroke="#EDE9E9"/>
<path d="M16.7021 15.1312V15.6312H17.2021H20.6653C20.8575 15.6312 20.9679 15.7002 21.0372 15.7808C21.1154 15.8718 21.1667 16.0099 21.1667 16.1667C21.1667 16.3234 21.1154 16.4616 21.0372 16.5526C20.9679 16.6332 20.8575 16.7022 20.6653 16.7022H17.2021H16.7021V17.2022V20.6652C16.7021 20.8574 16.6332 20.9679 16.5526 21.0372C16.4616 21.1154 16.3234 21.1667 16.1666 21.1667C16.0099 21.1667 15.8717 21.1154 15.7807 21.0372C15.7001 20.9679 15.6311 20.8574 15.6311 20.6652V17.2022V16.7022H15.1311H11.668C11.4759 16.7022 11.3655 16.6332 11.2962 16.5526C11.218 16.4616 11.1667 16.3235 11.1667 16.1667C11.1667 16.0099 11.218 15.8717 11.2962 15.7807C11.3655 15.7001 11.4759 15.6312 11.668 15.6312H15.1311H15.6311V15.1312V11.6682C15.6311 11.476 15.7001 11.3655 15.7807 11.2962C15.8717 11.218 16.0099 11.1667 16.1666 11.1667C16.3234 11.1667 16.4616 11.218 16.5526 11.2962C16.6332 11.3655 16.7021 11.476 16.7021 11.6682V15.1312Z" stroke="#BDB4B4"/>
</svg>
